<svg xmlns="http://www.w3.org/2000/svg" width="980" height="220" viewBox="0 0 980 220" role="img" aria-labelledby="ycLogoTitle ycLogoDesc">
  <title id="ycLogoTitle">YC Systems</title>
  <desc id="ycLogoDesc">Official YC Systems horizontal logo with Smart Solutions. Real Results. tagline.</desc>
  <defs>
    <linearGradient id="ycLogoA" x1="0" x2="410" y1="0" y2="170" gradientUnits="userSpaceOnUse">
      <stop offset="0" stop-color="#2563eb"/>
      <stop offset="0.38" stop-color="#0f47d8"/>
      <stop offset="0.72" stop-color="#07142a"/>
      <stop offset="1" stop-color="#0f172a"/>
    </linearGradient>
    <linearGradient id="ycLogoB" x1="124" x2="398" y1="0" y2="170" gradientUnits="userSpaceOnUse">
      <stop offset="0" stop-color="#2563eb"/>
      <stop offset="0.5" stop-color="#0057ff"/>
      <stop offset="1" stop-color="#06319b"/>
    </linearGradient>
  </defs>
  <rect width="980" height="220" fill="none"/>
  <g transform="translate(24 33) scale(0.78)">
    <path d="M0 0h44l55 64L154 0h48L121 92v78H77V92L0 0Z" fill="url(#ycLogoA)"/>
    <path d="M218 0h168l-28 36H248c-28 0-48 20-48 48s20 49 48 49h114l31 37H218c-54 0-94-37-94-86S164 0 218 0Z" fill="url(#ycLogoB)"/>
  </g>
  <g font-family="Inter, Montserrat, Arial, sans-serif" font-weight="900">
    <text x="366" y="122" font-size="78" letter-spacing="0" fill="#2563eb">YC</text>
    <text x="496" y="122" font-size="78" letter-spacing="0" fill="#f8fbff">SYSTEMS</text>
  </g>
  <g font-family="Inter, Montserrat, Arial, sans-serif" font-size="18" font-weight="760" letter-spacing="5">
    <text x="372" y="166" fill="#b7c2d0">SMART SOLUTIONS.</text>
    <text x="635" y="166" fill="#2563eb">REAL RESULTS.</text>
  </g>
</svg>
