<svg xmlns="http://www.w3.org/2000/svg" width="640" height="160" viewBox="0 0 640 160" role="img" aria-labelledby="ycNavLogoTitle ycNavLogoDesc">
  <title id="ycNavLogoTitle">YC Systems</title>
  <desc id="ycNavLogoDesc">Premium horizontal YC Systems wordmark for navigation.</desc>
  <defs>
    <linearGradient id="navMetal" x1="24" x2="170" y1="26" y2="136" gradientUnits="userSpaceOnUse">
      <stop offset="0" stop-color="#ffffff"/>
      <stop offset="0.22" stop-color="#dfefff"/>
      <stop offset="0.5" stop-color="#f8fbff"/>
      <stop offset="0.74" stop-color="#9fb4cc"/>
      <stop offset="1" stop-color="#ffffff"/>
    </linearGradient>
    <linearGradient id="navBlue" x1="122" x2="322" y1="26" y2="136" gradientUnits="userSpaceOnUse">
      <stop offset="0" stop-color="#ecfaff"/>
      <stop offset="0.24" stop-color="#00d8ff"/>
      <stop offset="0.54" stop-color="#2563eb"/>
      <stop offset="0.82" stop-color="#0f3fb8"/>
      <stop offset="1" stop-color="#f8fbff"/>
    </linearGradient>
    <linearGradient id="navWord" x1="294" x2="612" y1="44" y2="112" gradientUnits="userSpaceOnUse">
      <stop offset="0" stop-color="#ffffff"/>
      <stop offset="0.36" stop-color="#e6f2ff"/>
      <stop offset="0.68" stop-color="#f8fbff"/>
      <stop offset="1" stop-color="#a8bad0"/>
    </linearGradient>
    <filter id="navGlow" x="-14%" y="-32%" width="128%" height="164%" color-interpolation-filters="sRGB">
      <feDropShadow dx="0" dy="0" stdDeviation="4" flood-color="#00d8ff" flood-opacity="0.36"/>
      <feDropShadow dx="0" dy="7" stdDeviation="11" flood-color="#000716" flood-opacity="0.52"/>
    </filter>
  </defs>
  <rect width="640" height="160" fill="none"/>
  <g filter="url(#navGlow)" transform="translate(22 25) scale(0.67)">
    <path d="M0 0h44l55 64L154 0h48L121 92v78H77V92L0 0Z" fill="url(#navMetal)" stroke="#eaf6ff" stroke-width="1.6" stroke-linejoin="round"/>
    <path d="M218 0h168l-28 36H248c-28 0-48 20-48 48s20 49 48 49h114l31 37H218c-54 0-94-37-94-86S164 0 218 0Z" fill="url(#navBlue)" stroke="#b9edff" stroke-width="1.6" stroke-linejoin="round"/>
  </g>
  <text x="284" y="103" font-family="Inter, Arial, sans-serif" font-size="58" font-weight="850" letter-spacing="0" fill="url(#navWord)" filter="url(#navGlow)">Systems</text>
</svg>
